<?xml version="1.0" encoding="utf-8"?>
<!-- Generator: Adobe Illustrator 17.0.0, SVG Export Plug-In . SVG Version: 6.00 Build 0)  -->
<!DOCTYPE svg PUBLIC "-//W3C//DTD SVG 1.1//EN" "http://www.w3.org/Graphics/SVG/1.1/DTD/svg11.dtd">
<svg version="1.1" id="Layer_1" xmlns="http://www.w3.org/2000/svg" xmlns:xlink="http://www.w3.org/1999/xlink" x="0px" y="0px"
	 width="960px" height="560px" viewBox="0 0 960 560" enable-background="new 0 0 960 560" xml:space="preserve">
<g>
	<path fill="none" stroke="#263238" stroke-linecap="round" stroke-linejoin="round" stroke-miterlimit="10" d="M384.741,407.332
		c0.866,3.431,0.44-2.884,2.138-10.612c1.699-7.727,4.606-4.593,4.606-4.593"/>
	
		<line fill="none" stroke="#263238" stroke-linecap="round" stroke-linejoin="round" stroke-miterlimit="10" x1="384.208" y1="399.438" x2="389.532" y2="397.255"/>
	<path fill="none" stroke="#263238" stroke-linecap="round" stroke-linejoin="round" stroke-miterlimit="10" d="M393.935,394.638
		c0,0-3.183,6.581,1.615,9.378"/>
	<path fill="none" stroke="#263238" stroke-linecap="round" stroke-linejoin="round" stroke-miterlimit="10" d="M398.449,392.787
		c0,0,5.253,2.918,1.962,9.236"/>
	
		<line fill="none" stroke="#263238" stroke-linecap="round" stroke-linejoin="round" stroke-miterlimit="10" x1="394.849" y1="396.867" x2="398.613" y2="399.615"/>
	
		<line fill="none" stroke="#263238" stroke-linecap="round" stroke-linejoin="round" stroke-miterlimit="10" x1="397.801" y1="395.657" x2="394.856" y2="400.345"/>
</g>
<g>
	
		<circle fill="none" stroke="#263238" stroke-linecap="round" stroke-linejoin="round" stroke-miterlimit="10" cx="310.992" cy="418.094" r="8.01"/>
	
		<circle fill="none" stroke="#263238" stroke-linecap="round" stroke-linejoin="round" stroke-miterlimit="10" cx="321.87" cy="421.224" r="8.888"/>
	
		<line fill="none" stroke="#263238" stroke-linecap="round" stroke-linejoin="round" stroke-miterlimit="10" x1="318.291" y1="414.794" x2="314.598" y2="416.112"/>
	
		<line fill="none" stroke="#263238" stroke-linecap="round" stroke-linejoin="round" stroke-miterlimit="10" x1="318.804" y1="416.316" x2="313.502" y2="418.233"/>
	
		<line fill="none" stroke="#263238" stroke-linecap="round" stroke-linejoin="round" stroke-miterlimit="10" x1="319" y1="418.149" x2="313.083" y2="420.424"/>
	
		<line fill="none" stroke="#263238" stroke-linecap="round" stroke-linejoin="round" stroke-miterlimit="10" x1="318.58" y1="420.654" x2="313.186" y2="423.118"/>
	
		<line fill="none" stroke="#263238" stroke-linecap="round" stroke-linejoin="round" stroke-miterlimit="10" x1="317.629" y1="422.581" x2="313.526" y2="424.283"/>
	<path fill="none" stroke="#263238" stroke-linecap="round" stroke-linejoin="round" stroke-miterlimit="10" d="M314.861,405.895
		c-0.232-0.696-2.829-1.19-2.955,0.732c-0.127,1.922,2.74,0.326,3.544-0.698c0,0-1.474,1.98-0.849,2.371"/>
	<path fill="none" stroke="#263238" stroke-linecap="round" stroke-linejoin="round" stroke-miterlimit="10" d="M329.239,408.29
		l-2.306,4.793c0,0,1.153-2.396,2.387-2.177c1.52,0.27,0.51,2.756-1.327,1.842"/>
</g>
<g>
	
		<line fill="none" stroke="#263238" stroke-linecap="round" stroke-linejoin="round" stroke-miterlimit="10" x1="815.052" y1="216.038" x2="818.674" y2="219.465"/>
	
		<line fill="none" stroke="#263238" stroke-linecap="round" stroke-linejoin="round" stroke-miterlimit="10" x1="818.674" y1="215.142" x2="815.641" y2="219.673"/>
	
		<line fill="none" stroke="#263238" stroke-linecap="round" stroke-linejoin="round" stroke-miterlimit="10" x1="822.236" y1="216.443" x2="825.859" y2="215.096"/>
	
		<line fill="none" stroke="#263238" stroke-linecap="round" stroke-linejoin="round" stroke-miterlimit="10" x1="827.597" y1="211.318" x2="829.8" y2="213.268"/>
	
		<line fill="none" stroke="#263238" stroke-linecap="round" stroke-linejoin="round" stroke-miterlimit="10" x1="831.488" y1="208.974" x2="828.698" y2="218.551"/>
</g>
<g>
	<polygon fill="none" stroke="#263238" stroke-linecap="round" stroke-linejoin="round" stroke-miterlimit="10" points="
		908.631,296.231 918.374,289.528 931.277,290.433 932.083,306.787 922.612,313.559 910.925,312.707 	"/>
	<polyline fill="none" stroke="#263238" stroke-linecap="round" stroke-linejoin="round" stroke-miterlimit="10" points="
		910.925,312.707 920.357,305.916 932.083,306.787 	"/>
	
		<line fill="none" stroke="#263238" stroke-linecap="round" stroke-linejoin="round" stroke-miterlimit="10" x1="920.357" y1="305.916" x2="918.374" y2="289.528"/>
	<polyline fill="none" stroke="#263238" stroke-linecap="round" stroke-linejoin="round" stroke-miterlimit="10" points="
		908.631,296.231 921.506,297.722 931.277,290.433 	"/>
	
		<line fill="none" stroke="#263238" stroke-linecap="round" stroke-linejoin="round" stroke-miterlimit="10" x1="921.506" y1="297.722" x2="922.612" y2="313.559"/>
</g>
<g>
	<polygon fill="none" stroke="#263238" stroke-linecap="round" stroke-linejoin="round" stroke-miterlimit="10" points="
		197.778,214.532 203.206,250.347 228.528,233.939 	"/>
	
		<line fill="none" stroke="#263238" stroke-linecap="round" stroke-linejoin="round" stroke-miterlimit="10" x1="197.778" y1="214.532" x2="215.785" y2="241.958"/>
	<polyline fill="none" stroke="#263238" stroke-linecap="round" stroke-linejoin="round" stroke-miterlimit="10" points="
		212.898,237.562 215.819,235.554 218.792,240.247 	"/>
</g>
<g>
	
		<line fill="none" stroke="#263238" stroke-linecap="round" stroke-linejoin="round" stroke-miterlimit="10" x1="850.255" y1="261.331" x2="856.969" y2="264.628"/>
	
		<line fill="none" stroke="#263238" stroke-linecap="round" stroke-linejoin="round" stroke-miterlimit="10" x1="854.801" y1="258.814" x2="852.88" y2="265.826"/>
	<path fill="none" stroke="#263238" stroke-linecap="round" stroke-linejoin="round" stroke-miterlimit="10" d="M855.732,255.396
		c0,0,0.947-0.854,1.618,0.207c0.671,1.06-0.648,3.275-0.648,3.275l2.693-1.024"/>
</g>
<g>
	<path fill="none" stroke="#263238" stroke-linecap="round" stroke-linejoin="round" stroke-miterlimit="10" d="M152.266,420.108
		c6.407,3.6-0.935,12.411-0.935,17.551c0,5.14,7.342,4.405,11.013,5.874c1.468,0,4.405,0,4.326,3.734"/>
	<path fill="none" stroke="#263238" stroke-linecap="round" stroke-linejoin="round" stroke-miterlimit="10" d="M145.122,424.762
		c1.114,6.076,8.086,3.92,12.352,5.307c7.33,2.385,3.266,9.965,1.074,14.543c-1.311,2.738-2.616,6.564-0.273,9.161"/>
	
		<line fill="none" stroke="#263238" stroke-linecap="round" stroke-linejoin="round" stroke-miterlimit="10" x1="146.06" y1="427.117" x2="153.703" y2="420.768"/>
	
		<line fill="none" stroke="#263238" stroke-linecap="round" stroke-linejoin="round" stroke-miterlimit="10" x1="149.059" y1="429.013" x2="154.814" y2="424.238"/>
	
		<line fill="none" stroke="#263238" stroke-linecap="round" stroke-linejoin="round" stroke-miterlimit="10" x1="152.441" y1="433.841" x2="157.303" y2="430.022"/>
	
		<line fill="none" stroke="#263238" stroke-linecap="round" stroke-linejoin="round" stroke-miterlimit="10" x1="151.437" y1="439.558" x2="160.938" y2="432.725"/>
	
		<line fill="none" stroke="#263238" stroke-linecap="round" stroke-linejoin="round" stroke-miterlimit="10" x1="155.075" y1="442.223" x2="161.698" y2="437.361"/>
	
		<line fill="none" stroke="#263238" stroke-linecap="round" stroke-linejoin="round" stroke-miterlimit="10" x1="157.894" y1="452.552" x2="166.172" y2="445.813"/>
	
		<line fill="none" stroke="#263238" stroke-linecap="round" stroke-linejoin="round" stroke-miterlimit="10" x1="158.099" y1="447.25" x2="163.499" y2="443.455"/>
</g>
<g>
	
		<circle fill="none" stroke="#263238" stroke-linecap="round" stroke-linejoin="round" stroke-miterlimit="10" cx="236.841" cy="54.143" r="15.378"/>
	<path fill="none" stroke="#263238" stroke-linecap="round" stroke-linejoin="round" stroke-miterlimit="10" d="M240.709,39.263
		c5.359-6.289,9.916-9.854,11.674-8.695c2.669,1.759-2.126,13.741-10.71,26.761c-8.584,13.02-17.705,22.149-20.374,20.39
		c-1.758-1.159-0.277-6.753,3.391-14.157"/>
	<path fill="none" stroke="#263238" stroke-linecap="round" stroke-linejoin="round" stroke-miterlimit="10" d="M221.791,57.295
		c-7.47-2.15-12.243-4.66-11.946-6.666c0.468-3.162,13.353-3.875,28.78-1.593c15.427,2.282,27.554,6.695,27.087,9.857
		c-0.323,2.187-6.586,3.202-15.522,2.866"/>
	<path fill="none" stroke="#263238" stroke-linecap="round" stroke-linejoin="round" stroke-miterlimit="10" d="M223.751,46.159
		c-5.638-10.175-8.456-18.114-6.544-19.353c2.509-1.625,12.215,8.904,21.678,23.516c9.463,14.613,15.1,27.776,12.591,29.401
		c-1.66,1.075-6.468-3.168-12.272-10.392"/>
	<circle fill="#263238" cx="252.435" cy="35.832" r="2.528"/>
	<circle fill="#263238" cx="244.071" cy="74.517" r="2.528"/>
	<circle fill="#263238" cx="230.581" cy="48.283" r="2.528"/>
</g>
<g>
	<polygon fill="none" stroke="#263238" stroke-linecap="round" stroke-linejoin="round" stroke-miterlimit="10" points="
		822.203,90.901 830.854,90.901 835.179,83.409 830.854,75.917 822.203,75.917 817.877,83.409 	"/>
	<polyline fill="none" stroke="#263238" stroke-linecap="round" stroke-linejoin="round" stroke-miterlimit="10" points="
		820.946,107.336 816.621,99.844 807.97,99.844 	"/>
	<polygon fill="none" stroke="#263238" stroke-linecap="round" stroke-linejoin="round" stroke-miterlimit="10" points="
		809.132,83.409 817.783,83.409 822.108,75.917 817.783,68.425 809.132,68.425 804.807,75.917 	"/>
	<polygon fill="none" stroke="#263238" stroke-linecap="round" stroke-linejoin="round" stroke-miterlimit="10" points="
		822.203,75.917 830.854,75.917 835.179,68.425 830.854,60.933 822.203,60.933 817.877,68.425 	"/>
	<circle fill="#263238" cx="822.108" cy="75.917" r="1.162"/>
	<circle fill="#263238" cx="804.044" cy="60.192" r="1.162"/>
	<circle fill="#263238" cx="820.946" cy="107.336" r="1.162"/>
	<circle fill="#263238" cx="807.97" cy="99.844" r="1.162"/>
	<circle fill="#263238" cx="844.707" cy="68.622" r="1.162"/>
	<circle fill="#263238" cx="816.533" cy="99.844" r="1.162"/>
	<circle fill="#263238" cx="835.179" cy="68.622" r="1.162"/>
	<circle fill="#263238" cx="822.108" cy="90.901" r="1.162"/>
	
		<line fill="none" stroke="#263238" stroke-linecap="round" stroke-linejoin="round" stroke-miterlimit="10" x1="835.179" y1="68.622" x2="844.707" y2="68.622"/>
	
		<line fill="none" stroke="#263238" stroke-linecap="round" stroke-linejoin="round" stroke-miterlimit="10" x1="822.108" y1="90.901" x2="816.533" y2="99.844"/>
	
		<line fill="none" stroke="#263238" stroke-linecap="round" stroke-linejoin="round" stroke-miterlimit="10" x1="809.132" y1="68.425" x2="804.044" y2="60.192"/>
</g>
<g>
	<path fill="none" stroke="#263238" stroke-linecap="round" stroke-linejoin="round" stroke-miterlimit="10" d="M156.546,115.46
		c1.954-6.637,8.092-11.482,15.361-11.482c7.516,0,13.823,5.179,15.546,12.163"/>
	<path fill="none" stroke="#263238" stroke-linecap="round" stroke-linejoin="round" stroke-miterlimit="10" d="M170.093,135.898
		c-7.988-0.901-14.196-7.68-14.196-15.909"/>
	<path fill="none" stroke="#263238" stroke-linecap="round" stroke-linejoin="round" stroke-miterlimit="10" d="M187.919,119.989
		c0,8.843-7.168,16.011-16.011,16.011"/>
	<path fill="none" stroke="#263238" stroke-linecap="round" stroke-linejoin="round" stroke-miterlimit="10" d="M188.826,109.838
		c5.008-0.643,8.365-0.294,8.883,1.198c1.035,2.984-9.677,9.411-23.926,14.356c-14.249,4.945-26.64,6.534-27.676,3.551
		c-0.553-1.595,2.25-4.174,7.156-6.984"/>
</g>
<polygon fill="none" stroke="#263238" stroke-linecap="round" stroke-linejoin="round" stroke-miterlimit="10" points="
	790.943,169.891 792.477,173 795.908,173.499 793.426,175.919 794.012,179.336 790.943,177.722 787.874,179.336 788.46,175.919 
	785.978,173.499 789.409,173 "/>
<g>
	<path fill="none" stroke="#263238" stroke-linecap="round" stroke-linejoin="round" stroke-miterlimit="10" d="M360.828,80.408
		c0,2.996-1.263,5.698-3.282,7.585c-1.865,1.762-4.376,2.834-7.129,2.834c-0.338,0-0.668-0.015-0.991-0.044
		c-2.166-0.206-4.134-1.072-5.705-2.394c-1.344-1.123-2.401-2.584-3.032-4.251c-0.448-1.16-0.69-2.416-0.69-3.73
		c0-5.749,4.662-10.411,10.419-10.411c1.615,0,3.15,0.367,4.523,1.035c1.571,0.756,2.922,1.894,3.928,3.297
		C360.101,76.04,360.828,78.14,360.828,80.408z"/>
	
		<circle fill="none" stroke="#263238" stroke-linecap="round" stroke-linejoin="round" stroke-miterlimit="10" cx="357.546" cy="82.293" r="1.611"/>
	<path fill="none" stroke="#263238" stroke-linecap="round" stroke-linejoin="round" stroke-miterlimit="10" d="M344.66,86.385
		c0,0.808-0.367,1.527-0.94,2.004c-1.344-1.123-2.401-2.584-3.032-4.251c0.389-0.242,0.852-0.374,1.344-0.374
		C343.486,83.764,344.66,84.938,344.66,86.385z"/>
	<path fill="none" stroke="#263238" stroke-linecap="round" stroke-linejoin="round" stroke-miterlimit="10" d="M357.546,87.993
		c-1.865,1.762-4.376,2.834-7.129,2.834c-0.338,0-0.668-0.015-0.991-0.044c-0.059-0.279-0.088-0.565-0.088-0.859
		c0-2.394,1.938-4.339,4.332-4.339C355.373,85.585,356.841,86.568,357.546,87.993z"/>
	
		<circle fill="none" stroke="#263238" stroke-linecap="round" stroke-linejoin="round" stroke-miterlimit="10" cx="347.892" cy="73.884" r="2.396"/>
	
		<circle fill="none" stroke="#263238" stroke-linecap="round" stroke-linejoin="round" stroke-miterlimit="10" cx="349" cy="80.682" r="1.108"/>
	<path fill="none" stroke="#263238" stroke-linecap="round" stroke-linejoin="round" stroke-miterlimit="10" d="M358.868,74.329
		c-0.279,0.095-0.587,0.14-0.903,0.14c-1.689,0-3.047-1.366-3.047-3.054c0-0.132,0.007-0.257,0.022-0.382
		C356.511,71.789,357.862,72.927,358.868,74.329z"/>
</g>
<path fill="none" stroke="#263238" stroke-linecap="round" stroke-linejoin="round" stroke-miterlimit="10" d="M342.513,329.326
	l1.123-2.525l-1.819-1.004c0.065-0.449,0.078-0.899,0.036-1.342l1.867-0.908l-0.991-2.58l-1.995,0.576
	c-0.266-0.356-0.577-0.682-0.926-0.972l0.678-1.964l-2.525-1.123l-1.004,1.819c-0.449-0.065-0.899-0.078-1.342-0.036l-0.908-1.867
	l-2.58,0.991l0.575,1.995c-0.356,0.266-0.682,0.577-0.972,0.926l-1.964-0.678l-1.123,2.525l1.819,1.004
	c-0.065,0.449-0.078,0.899-0.036,1.342l-1.867,0.908l0.991,2.58l1.995-0.575c0.266,0.356,0.577,0.682,0.926,0.972l-0.678,1.964
	l2.525,1.123l1.004-1.819c0.449,0.065,0.899,0.077,1.342,0.036l0.908,1.867l2.58-0.991l-0.576-1.995
	c0.356-0.266,0.682-0.577,0.972-0.925L342.513,329.326z M334.835,327.913c-1.621-0.721-2.35-2.619-1.629-4.24
	c0.721-1.621,2.619-2.35,4.24-1.629c1.621,0.721,2.35,2.619,1.629,4.24C338.354,327.905,336.455,328.634,334.835,327.913z"/>
<path fill="none" stroke="#263238" stroke-linecap="round" stroke-linejoin="round" stroke-miterlimit="10" d="M329.095,342.285
	l1.525-3.43l-2.471-1.364c0.088-0.61,0.105-1.221,0.049-1.822l2.535-1.234l-1.346-3.504l-2.709,0.782
	c-0.361-0.484-0.783-0.926-1.257-1.32l0.921-2.668l-3.43-1.525l-1.364,2.471c-0.61-0.088-1.221-0.105-1.822-0.049l-1.234-2.535
	l-3.504,1.346l0.782,2.709c-0.484,0.361-0.926,0.783-1.32,1.257l-2.667-0.921l-1.526,3.43l2.471,1.364
	c-0.088,0.61-0.105,1.221-0.05,1.822l-2.535,1.234l1.346,3.504l2.709-0.782c0.361,0.484,0.783,0.926,1.257,1.32l-0.921,2.667
	l3.43,1.525l1.364-2.471c0.61,0.088,1.221,0.105,1.822,0.05l1.233,2.535l3.504-1.346l-0.782-2.709
	c0.484-0.361,0.926-0.783,1.32-1.257L329.095,342.285z M318.668,340.367c-2.201-0.979-3.192-3.557-2.213-5.758
	c0.979-2.201,3.557-3.192,5.758-2.213c2.201,0.979,3.192,3.557,2.213,5.758C323.447,340.355,320.869,341.346,318.668,340.367z"/>
<g>
	<defs>
		<path id="XMLID_569_" d="M754.349,357.452c-1.02,1.935-2.158,3.77-3.402,5.493c-6.687,9.302-16.397,15.518-27.027,18.011
			c-5.275,1.236-10.781,1.553-16.26,0.872c-5.404-0.667-10.78-2.311-15.883-5.001c-1.02-0.537-2.013-1.112-2.974-1.713
			c-0.958-0.594-1.886-1.222-2.78-1.877c-1.089-0.789-2.13-1.623-3.13-2.498c-0.005-0.003-0.007-0.01-0.012-0.013
			c-0.061-0.051-0.123-0.103-0.179-0.164c-0.012-0.013-0.022-0.018-0.022-0.018c-5.87-5.182-10.211-11.682-12.811-18.809
			c-1.066-2.921-1.844-5.956-2.301-9.05c-1.417-9.419,0.055-19.363,4.836-28.431c7.073-13.418,19.801-21.928,33.701-24.144
			c9.546-1.527,19.659-0.086,28.871,4.77c8.701,4.587,15.342,11.56,19.537,19.692C761.231,327.563,761.692,343.524,754.349,357.452z
			"/>
	</defs>
	<use xlink:href="#XMLID_569_"  overflow="visible" fill="#92E3A9"/>
	<clipPath id="XMLID_2_">
		<use xlink:href="#XMLID_569_"  overflow="visible"/>
	</clipPath>
	<g opacity="0.6" clip-path="url(#XMLID_2_)">
		<path fill="#FFFFFF" d="M754.35,357.455c-1.021,1.931-2.159,3.767-3.399,5.492l-0.896-0.705l-1.542-0.815l-1.623-0.852l0.272-1.96
			c0,0,0,0-0.088-1.769c-0.095-1.769,1.182-0.323,2.239-0.859c1.043-0.551,1.872-2.173,1.872-2.173s0.749-2.357,0.492-3.304
			c-0.257-0.947-1.395-3.187-1.395-3.187l-2.629,3.649l-2.166-0.169l-2.159-1.131l-0.272-2.9l-1.072-0.558l-0.448-1.667
			l-5.793-1.623c0,0,0,0-0.661-1.16c-0.661-1.16-3.326-1.755-3.326-1.755l0.653-1.512c0,0,0,0,1.028-1.689
			c1.035-1.689,2.107,1.116,2.107,1.116l1.226,0.639l2.276-1.909c0,0,0,0,0.602-2.739l3.708,0.213c0,0-0.264-1.344,0.969-1.836
			c1.233-0.485,0.69-3.164,0.22-4.156c-0.485-0.984-2.173-0.191-2.173-0.191s-1.887-2.871-2.144-4.016
			c-0.257-1.138,3.598-0.764,5.25-1.887c1.645-1.116,1.087-3.444,0.279-3.495c-0.8-0.059,1.579-5.213,6.167-3.796
			c1.278,0.396,2.085,0.257,2.584-0.184C761.23,327.565,761.693,343.527,754.35,357.455z"/>
		<path fill="#FFFFFF" d="M722.243,337.594c-1.571,1.975-1.571,1.975-1.571,1.975s-0.668-1.593-1.623-0.727
			c-0.955,0.866-1.439,1.307-1.439,1.307l-1.065,2.981l-1.909,1.233l-1.167-0.609l-1.101-0.587l-1.197-0.631l-1.145,2.173
			l-0.932,1.762c0.705,1.373,1.681,2.386,1.681,2.386l2.026,3.576l2.416,1.27c1.483,0.029,3.062,0.367,3.062,0.367l1.696,0.888
			l-0.602,3.678c0,0-1.278,2.078-2.129,1.505c-0.859-0.565-0.859-0.565-0.859-0.565l-1.395,4.831l-0.059,2.658
			c0,0-0.83,0.345-1.667,0.624c-0.844,0.279-0.308,0.132-2.063,0.675c-1.755,0.543-1.615,0.521-3.04,0.925
			c-1.424,0.404-3.488,1.63-3.488,1.63l0.125,2.555l-3.355,0.492l-1.88-0.999l0.463-1.615l0.22-2.526l-0.257-1.887l-0.808-1.667
			l2.261-2.048l-0.499-1.285l-1.285-2.555l-2.717,1.468l-1.395,0.749l-3.157-1.417l-0.345-1.916l-1.072-3.458l-0.984-2.144
			l-1.747-2.364l-0.441-2.034l0.984-1.865l0.521-0.984l-1.608-2.166l-0.441-1.542l-2.709-2.46c0,0,0.786-0.051,0.609-1.145
			s1.549-2.937,1.549-2.937c0.977,0.514,3.906,2.555,3.906,2.555l2.562,0.352c0.029,0,0.514-0.015,1.013-0.969
			c0.514-0.977,2.041-2.445,2.041-2.445s-1.182-4.104-0.338-4.655c0.837-0.565,1.703-3.238,1.703-3.238l0.676-1.285
			c0,0-1.593-0.698-1.894-1.542c-0.301-0.852-4.229,0.279-4.229,0.279l-2.709,1.88l-2.07,1.645l-0.925,1.755
			c0,0-1.887-2.269-1.894-0.999c-0.007,1.27-0.852,3.825-0.852,3.825s0.389,0.206-0.125,1.189c-0.521,0.977-1.072,0.932-2.232,1.072
			c-1.16,0.14-4.376-0.301-4.376-0.301s-0.734,2.717-0.228,3.187c0.499,0.455,0.499,0.455,0.499,0.455s-0.786,1.975-1.564,1.564
			c-0.786-0.418-1.894-0.999-1.894-0.999l-2.651,1.072l-2.908,3.245l-0.653-0.132c-1.417-9.413,0.059-19.361,4.839-28.429
			c7.071-13.414,19.802-21.924,33.701-24.141c0.169,0.749,0.352,1.424,0.352,1.424l-0.712,3.627l-0.94,1.792l-0.808,1.535
			l-1.138,2.159l2.834,2.687l-0.624,3.179l-1.579,0.991l-0.455,2.386l2.709,5.294l0.764,2.078c0,0-0.844,1.88-0.653,3.172
			c0,0,0.33,1.982,1.777,2.768c1.446,0.778,3.348,1.711,3.348,1.711l-0.154,2.952l-0.654,0.764l1.087,3.164
			c3.311,1.3,2.996,2.386,3.311,1.3c0.323-1.079,0.323-1.079,0.323-1.079l2.254-0.815l2.871,3.429c0,0,0.888-0.117,1.689,0.896
			C722.514,336.537,723.821,335.619,722.243,337.594z"/>
		<path fill="#FFFFFF" d="M683.329,363.167c0.081,1.043-1.241,2.35-1.241,2.35l1.079,0.565l0.33,2.908l-0.815,1.557
			c-5.874-5.184-10.213-11.681-12.812-18.811l0.587-3.113l2.592-0.367c0,0,2.32-1.542,3.348-1.131
			c1.028,0.426,1.968,2.915,1.968,2.915s0.756,3.407,0.639,3.341l-0.015-0.007l-0.044,0.029l0.059-0.022l1.057,0.558l0.301,1.344
			l-1.476,2.79l-2.364,0.007c0,0-0.47-0.25-0.514,0.977c-0.044,1.233,1.226,2.151,1.226,2.151l2.555-0.653
			c0.683-2.643,0.683-2.643,0.683-2.643l2.511-0.492c0,0-0.36,1.623,0.228,1.931c0.595,0.316,0.595,0.316,0.595,0.316l0.352,1.938
			C684.159,361.603,683.248,362.124,683.329,363.167z"/>
		<path fill="#FFFFFF" d="M695.473,367.32c-0.227-0.626-0.323-1.176-1.887-2c-1.559-0.822-1.48-0.527-2.086,0.153
			c-0.61,0.678-1.312,1.061-2.335,0.831c-1.024-0.23-0.491,0.93-0.491,0.93l0.245,3.134l-2.897,2.869
			c0.894,0.655,1.822,1.283,2.78,1.877l0.619-1.894l4.817,1.433c-1.022-0.305-0.419-1.701-0.419-1.701l-1.03-0.543
			C692.791,372.408,695.703,367.94,695.473,367.32z"/>
		<path fill="#FFFFFF" d="M725.809,351.02l-1.579-1.593l-1.802,0.571l-0.77,1.461l-0.555,1.054l0.746,1.434l1.48,1.781l0.842-1.598
			c0,0,2.327,0.015,3.545-1.345C728.932,351.425,725.809,351.02,725.809,351.02z"/>
		<path fill="#FFFFFF" d="M721.174,343.832l2.937,1.548c0,0,0,0,0.114-0.691c0.114-0.691,0.796-1.511,0.796-1.511l-2.251-2.376
			L721.174,343.832z"/>
		<path fill="#FFFFFF" d="M720.172,378.012l-0.847-1.237l-0.98-0.517l-3.006,0.003l-1.709,3.242c0,0-1.635-0.223-3.788-0.409
			c-2.151-0.191-1.619,0.696-1.619,0.696l-0.562,2.038c5.479,0.681,10.985,0.364,16.26-0.872c-0.865-0.614-1.924-1.185-1.924-1.185
			L720.172,378.012z"/>
	</g>
	
		<use xlink:href="#XMLID_569_"  overflow="visible" fill="none" stroke="#263238" stroke-linecap="round" stroke-linejoin="round" stroke-miterlimit="10"/>
</g>
<path fill="none" stroke="#263238" stroke-linecap="round" stroke-linejoin="round" stroke-miterlimit="10" d="M723.92,380.956
	c-5.275,1.236-10.781,1.553-16.26,0.872l0.562-2.038c0,0-0.532-0.887,1.619-0.696c2.154,0.186,3.788,0.409,3.788,0.409l1.709-3.242
	l3.006-0.003l0.98,0.517l0.847,1.237l1.824,1.759C721.996,379.77,723.055,380.341,723.92,380.956z"/>
<g>
	<path fill="none" stroke="#263238" stroke-linecap="round" stroke-linejoin="round" stroke-miterlimit="10" d="M754.512,314.572
		c-0.497,0.44-1.304,0.578-2.582,0.182c-4.59-1.42-6.973,3.737-6.168,3.794c0.807,0.052,1.365,2.377-0.28,3.495
		c-1.653,1.121-5.505,0.748-5.252,1.887c0.258,1.142,2.141,4.013,2.141,4.013s1.689-0.792,2.173,0.197
		c0.477,0.991,1.02,3.669-0.217,4.155c-1.232,0.489-0.968,1.836-0.968,1.836l-3.712-0.217c-0.597,2.74-0.597,2.74-0.597,2.74
		l-2.279,1.911l-1.223-0.644c0,0-1.074-2.799-2.109-1.112c-1.027,1.685-1.027,1.685-1.027,1.685l-0.658,1.513
		c0,0,2.665,0.595,3.331,1.756c0.661,1.158,0.661,1.158,0.661,1.158l5.789,1.629l0.452,1.662l1.069,0.564l0.271,2.894l2.161,1.133
		l2.161,0.172l2.634-3.653c0,0,1.138,2.245,1.393,3.189c0.26,0.947-0.489,3.303-0.489,3.303s-0.831,1.624-1.879,2.172
		c-1.05,0.541-2.331-0.906-2.239,0.863c0.087,1.766,0.087,1.766,0.087,1.766l-0.267,1.959l1.624,0.856l1.539,0.811l0.893,0.705"/>
	<path fill="none" stroke="#263238" stroke-linecap="round" stroke-linejoin="round" stroke-miterlimit="10" d="M667.568,342.685
		l0.648,0.127l2.913-3.246l2.646-1.072c0,0,1.114,0.587,1.896,0.999c0.782,0.412,1.568-1.558,1.568-1.558s0,0-0.503-0.461
		c-0.508-0.464,0.231-3.186,0.231-3.186s3.212,0.447,4.373,0.307c1.162-0.14,1.714-0.096,2.231-1.076
		c0.517-0.98,0.126-1.186,0.126-1.186s0.848-2.557,0.853-3.826c0.005-1.269,1.891,0.997,1.891,0.997l0.926-1.757l2.075-1.645
		l2.703-1.877c0,0,3.929-1.129,4.233-0.28c0.3,0.847,1.894,1.542,1.894,1.542l-0.676,1.282c0,0-0.866,2.674-1.706,3.237
		c-0.843,0.555,0.34,4.658,0.34,4.658s-1.528,1.471-2.042,2.447c-0.517,0.98-1.012,0.972-1.012,0.972l-2.565-0.353
		c0,0-2.927-2.043-3.907-2.559c0,0-1.719,1.845-1.547,2.935c0.174,1.098-0.605,1.148-0.605,1.148l2.708,2.458l0.44,1.541l1.61,2.165
		l-0.522,0.99l-0.984,1.866l0.434,2.032l1.754,2.36l0.983,2.144l1.072,3.462l0.344,1.915l3.156,1.417l1.395-0.751l2.715-1.466
		l1.284,2.555l0.505,1.285l-2.261,2.046l0.803,1.669l0.262,1.89l-0.224,2.526l-0.465,1.614l1.886,0.994l3.349-0.486l-0.118-2.56
		c0,0,2.061-1.222,3.484-1.63c1.428-0.405,1.282-0.38,3.041-0.921c1.756-0.548,1.215-0.397,2.059-0.679
		c0.837-0.28,1.668-0.62,1.668-0.62l0.062-2.662l1.39-4.833c0,0,0,0,0.859,0.567c0.856,0.572,2.132-1.501,2.132-1.501l0.6-3.681
		l-1.693-0.892c0,0-1.577-0.332-3.061-0.361l-2.42-1.276l-2.021-3.57c0,0-0.977-1.015-1.683-2.386l0.929-1.762l1.145-2.173
		l1.198,0.631l1.104,0.582l1.168,0.616l1.906-1.24l1.065-2.981c0,0,0.485-0.44,1.44-1.303c0.957-0.868,1.624,0.723,1.624,0.723
		s0,0,1.572-1.974c1.577-1.971,0.273-1.058-0.534-2.071c-0.807-1.013-1.693-0.892-1.693-0.892l-2.872-3.43l-2.253,0.818
		c0,0,0,0-0.321,1.077c-0.319,1.084,0,0-3.311-1.303l-1.091-3.162l0.655-0.762l0.159-2.952c0,0-1.907-0.929-3.35-1.709
		c-1.445-0.787-1.778-2.771-1.778-2.771c-0.193-1.291,0.651-3.167,0.651-3.167l-0.761-2.084l-2.712-5.294l0.459-2.383l1.573-0.992
		l0.624-3.175l-2.833-2.689l1.138-2.158l0.809-1.534l0.945-1.792l0.706-3.631c0,0-0.178-0.67-0.35-1.424"/>
	<path fill="none" stroke="#263238" stroke-linecap="round" stroke-linejoin="round" stroke-miterlimit="10" d="M682.893,370.739
		c-0.073-0.089-0.154-0.151-0.191-0.177c-0.012-0.013-0.022-0.018-0.022-0.018l0.819-1.554l-0.328-2.905l-1.079-0.569
		c0,0,1.315-1.306,1.237-2.346c-0.08-1.048,0.827-1.569,0.827-1.569l-0.351-1.937c0,0,0,0-0.589-0.311
		c-0.589-0.31-0.231-1.937-0.231-1.937l-2.511,0.492c0,0,0,0-0.685,2.643l-2.552,0.653c0,0-1.269-0.916-1.228-2.146
		c0.046-1.228,0.517-0.98,0.517-0.98l2.363-0.007l1.472-2.792l-0.294-1.338l-1.064-0.561"/>
	<path fill="none" stroke="#263238" stroke-linecap="round" stroke-linejoin="round" stroke-miterlimit="10" d="M678.991,353.375
		l0.01,0.005c0.119,0.063-0.636-3.34-0.636-3.34s-0.938-2.493-1.967-2.915c-1.027-0.415-3.348,1.132-3.348,1.132l-2.591,0.367
		l-0.59,3.111"/>
	<path fill="none" stroke="#263238" stroke-linecap="round" stroke-linejoin="round" stroke-miterlimit="10" d="M689.422,373.219
		l-0.619,1.894c-0.958-0.594-1.886-1.222-2.78-1.877l2.897-2.869l-0.245-3.134c0,0-0.533-1.16,0.491-0.93
		c1.024,0.23,1.725-0.153,2.335-0.831c0.605-0.68,0.527-0.975,2.086-0.153c1.564,0.825,1.66,1.375,1.887,2
		c0.229,0.621-2.682,5.088-2.682,5.088l1.029,0.543c0,0-0.603,1.396,0.419,1.701L689.422,373.219z"/>
	<path fill="none" stroke="#263238" stroke-linecap="round" stroke-linejoin="round" stroke-miterlimit="10" d="M722.428,349.998
		l1.802-0.571l1.579,1.593c0,0,3.123,0.405,1.905,1.765c-1.217,1.36-3.545,1.345-3.545,1.345l-0.842,1.598l-1.48-1.781l-0.746-1.434
		l0.555-1.054L722.428,349.998z"/>
	<path fill="none" stroke="#263238" stroke-linecap="round" stroke-linejoin="round" stroke-miterlimit="10" d="M725.021,343.179
		c0,0-0.683,0.82-0.796,1.511c-0.114,0.691-0.114,0.691-0.114,0.691l-2.937-1.548l1.597-3.029L725.021,343.179z"/>
</g>
<g>
	<path fill="#263238" d="M884.351,516.368c-3.935,3.275-34.25,24.081-77.512,20.729c-2.327-19.692-11.204-100.596-1.109-113.276
		c0,0,24.494-11.681,47.056-6.777s31.344,9.604,32.952,13.671C886.958,433.792,885.218,491.074,884.351,516.368z"/>
	<path fill="#FFFFFF" stroke="#263238" stroke-linecap="round" stroke-linejoin="round" stroke-miterlimit="10" d="M852.038,425.686
		c-12.996,11.256-29.736,8.877-29.369,0.235c0.059-1.351,1.505-3.025,1.505-3.025s-0.191-0.286-0.507-0.778
		c-0.485-0.734-1.27-1.931-2.181-3.326c-1.608-2.489-3.62-5.617-5.022-7.893c-1.175-1.938,28.113-19.956,28.113-9.596
		c0,14.596,7.166,17.342,7.166,17.342C854.425,419.731,856.936,421.449,852.038,425.686z"/>
	<path fill="none" stroke="#FFFFFF" stroke-linecap="round" stroke-linejoin="round" stroke-miterlimit="10" d="M860.251,447.978
		c0,0-2.619,8.984-1.374,11.56"/>
	<path fill="none" stroke="#FFFFFF" stroke-linecap="round" stroke-linejoin="round" stroke-miterlimit="10" d="M857.193,421.88
		c0,8.673-25.868,17.166-33.448,8.468"/>
	<path fill="#263238" d="M835.915,411.875c0,0-1.741,6.532-9.801,11.639c0,0-0.411-0.896-1.741-1.375
		c-0.235-0.085-0.485-0.007-0.705-0.022c-0.485-0.734-1.27-1.931-2.181-3.326C825.606,415.803,835.915,411.875,835.915,411.875z"/>
	<g>
		<path fill="#FFFFFF" stroke="#263238" stroke-linecap="round" stroke-linejoin="round" stroke-miterlimit="10" d="
			M839.539,403.844c0,0-0.084,6.448-1.448,7.757c-10.245,9.826-20.258,10.602-21.911,8.01c-11.121-17.441-8.493-22.04-9.627-25.009
			c-2.003-5.246-4.462-13.804-3.378-18.99c2.422-11.582,24.246-20.531,35.715-8.917c5.506,5.576,7.246,17.67,6.084,27.742"/>
		<path fill="none" stroke="#263238" stroke-linecap="round" stroke-linejoin="round" stroke-miterlimit="10" d="M807.94,389.208
			c0,0-3.057-1.373-3.72,0.266"/>
		<path fill="none" stroke="#263238" stroke-linecap="round" stroke-linejoin="round" stroke-miterlimit="10" d="M815.366,389.279
			c0,0,6.367-2.665,9.228,0.569"/>
		
			<ellipse transform="matrix(0.9941 -0.1085 0.1085 0.9941 -37.8884 91.3996)" fill="#263238" cx="821.176" cy="393.96" rx="1.238" ry="1.74"/>
		
			<ellipse transform="matrix(0.9941 -0.1084 0.1084 0.9941 -37.9853 90.0269)" fill="#263238" cx="808.71" cy="394.249" rx="1.238" ry="1.74"/>
		<path fill="#FFFFFF" stroke="#263238" stroke-linecap="round" stroke-linejoin="round" stroke-miterlimit="10" d="M810.26,391.606
			c0.889,1.432,0.403,3.874-0.768,7.226c-1.17,3.352-0.139,4.57,4.365,4.907"/>
		<path fill="none" stroke="#263238" stroke-linecap="round" stroke-linejoin="round" stroke-miterlimit="10" d="M813.857,409.548
			c0,0,5.889-0.537,8.565-2.011"/>
		<path fill="#263238" d="M851.058,376.258c-0.001-4.364-4.302-13.313-11.856-14.317l0,0c-4.333-4.539-10.522-6.207-18.025-4.482
			c-17.337,3.986-22.615,21.103-23.377,23.941c-0.074,0.264-0.105,0.41-0.105,0.41l4.641-1.178l-2.002,3.904l2.433,1.606
			l-0.557,0.617l2.817,2.715l-0.881-4.96c0.544-3.208,4.227-7.681,4.227-7.681c-2.147,2.576-2.418,6.014-2.418,6.014
			c1.455-3.813,10.28-7.315,10.28-7.315c-2.859,2.317-4.381,6.858-4.381,6.858c2.721-3.348,9.087-5.517,13.159-6.668
			c1.376,3.316,3.555,6.773,6.669,8.689c2.933,1.805,2.83,5.53,2.83,5.53c5.099,3.335,6.595,9.078,6.595,9.078l3.553,4.861
			C844.659,403.88,851.064,395.984,851.058,376.258z"/>
		<path fill="#FFFFFF" stroke="#263238" stroke-linecap="round" stroke-linejoin="round" stroke-miterlimit="10" d="
			M836.115,391.163c-1.189-2.551,3.129-9.449,6.186-8.594c1.719,0.481,3.965,3.615,4.402,6.909c0.437,3.294-1.89,9.515-4.372,10.9
			c-1.575,0.879-2.873-1.516-2.873-1.516"/>
	</g>
	<g>
		<polygon fill="#FFFFFF" points="648.799,515.781 731.756,496.388 904.796,516.368 860.251,546.839 		"/>
		<polyline fill="#FFFFFF" stroke="#263238" stroke-linecap="round" stroke-linejoin="round" stroke-miterlimit="10" points="
			648.799,515.781 731.756,496.388 904.796,516.368 		"/>
	</g>
	<polygon fill="#FFFFFF" stroke="#263238" stroke-linecap="round" stroke-linejoin="round" stroke-miterlimit="10" points="
		720.592,519.673 754.175,504.831 796.632,507.023 777.752,523.167 	"/>
	<g>
		<path fill="#263238" d="M807.371,423.097c-10.772,4.405-13.095,14.307-31.394,53.446c0,0-8.133,1.67-12.49,11.545
			c-4.357,9.876,2.905,17.675,11.328,17.406c0,0,3.367,2.926,10.252,2.636c6.885-0.29,37.473-47.027,37.473-47.027L807.371,423.097z
			"/>
		<path fill="none" stroke="#FFFFFF" stroke-linecap="round" stroke-linejoin="round" stroke-miterlimit="10" d="M779.18,478.834
			c4.819,4.293,7.584,10.583,6.116,17.554"/>
		<path fill="none" stroke="#FFFFFF" stroke-linecap="round" stroke-linejoin="round" stroke-miterlimit="10" d="M783.828,480.897
			c0,0,5.922,1.291,6.834,8.875"/>
		<path fill="none" stroke="#FFFFFF" stroke-linecap="round" stroke-linejoin="round" stroke-miterlimit="10" d="M801.155,458.725
			c0,0-4.523-9.983-2.804-21.785"/>
		<path fill="none" stroke="#FFFFFF" stroke-linecap="round" stroke-linejoin="round" stroke-miterlimit="10" d="M800.308,448.742
			c-0.45,3.084,2.737,19.498,2.716,36.764"/>
	</g>
	<g>
		<path fill="#263238" d="M880.82,426.329c13.475,6.772,15.078,27.603,2.362,52.505c-8.977,17.58-21.373,43.534-29.216,45.277
			c-7.843,1.743-15.487-3.143-15.487-3.143s-6.612-0.31-8.605-5.006c-5.462-12.874,8.423-29.07,13.886-25.189
			c0,0,17.444-37.936,20.623-40.326"/>
		<path fill="none" stroke="#FFFFFF" stroke-linecap="round" stroke-linejoin="round" stroke-miterlimit="10" d="M828.624,508.151
			c-1.808-8.858,12.134-19.315,15.135-17.378c0,0,10.36,0.581,11.909,7.746"/>
		<path fill="none" stroke="#FFFFFF" stroke-linecap="round" stroke-linejoin="round" stroke-miterlimit="10" d="M866.576,510.044
			c6.065-10.7,16.605-31.21,16.605-31.21"/>
		<path fill="none" stroke="#FFFFFF" stroke-linecap="round" stroke-linejoin="round" stroke-miterlimit="10" d="M843.759,490.772
			c0,0,7.261-4.341,12.683-0.234"/>
		<path fill="none" stroke="#FFFFFF" stroke-linecap="round" stroke-linejoin="round" stroke-miterlimit="10" d="M846.207,485.506
			c0,0,4.011-8.794,8.095-16.91c4.084-8.115,13.372-20.038,17.245-20.619"/>
	</g>
	<g>
		<g>
			<defs>
				<path id="XMLID_12_" d="M769.688,501.333c-0.844-0.044-1.689-0.257-2.496-0.683c-12.504-6.513-22.188-17.276-28.033-25
					c-4.06-5.367-6.263-9.273-6.263-9.273l2.996-12.834c0,0,2.819,7.313,14.148,14.56c11.322,7.247,24.787,9.596,29.141,16.858
					C783.036,491.391,776.245,501.663,769.688,501.333z"/>
			</defs>
			<use xlink:href="#XMLID_12_"  overflow="visible" fill="#FFFFFF"/>
			<clipPath id="XMLID_3_">
				<use xlink:href="#XMLID_12_"  overflow="visible"/>
			</clipPath>
			<path opacity="0.4" clip-path="url(#XMLID_3_)" fill="#92E3A9" d="M769.688,501.333c-0.132-0.859-0.367-1.762-0.749-2.709
				c-2.621-6.564-18.48-19.611-18.48-19.611c-3.774-0.117-7.922-1.689-11.3-3.363c-4.06-5.367-6.263-9.273-6.263-9.273l2.996-12.834
				c0,0,2.819,7.313,14.148,14.56c11.322,7.247,24.787,9.596,29.141,16.858C783.036,491.391,776.245,501.663,769.688,501.333z"/>
			
				<use xlink:href="#XMLID_12_"  overflow="visible" fill="none" stroke="#263238" stroke-linecap="round" stroke-linejoin="round" stroke-miterlimit="10"/>
		</g>
		<path fill="#FFFFFF" stroke="#263238" stroke-linecap="round" stroke-linejoin="round" stroke-miterlimit="10" d="M741.42,465.624
			c0,0-1.549,6.849-5.632,5.314c-2.213-0.832-6.448-7.412-7.25-10.728L741.42,465.624z"/>
		<g>
			<path fill="#FFFFFF" stroke="#263238" stroke-linecap="round" stroke-linejoin="round" stroke-miterlimit="10" d="
				M723.426,423.493l3.333-1.724c0,0,9.422,0.084,15.266,4.834c5.308,4.315,7.997,11.079,7.997,11.079s20.629-11.39,41.689-4.854
				l8.597,47.882l-39.494,2.606l-24.65-23.44L723.426,423.493z"/>
			<g>
				<defs>
					<path id="XMLID_11_" d="M803.022,482.625c0,0-4.633-0.139-10.83,0.066c-9.369,0.294-22.313,1.351-28.231,4.794l-0.279-0.095
						l-5.419-1.887c0,0-0.037-0.051-0.11-0.162c-0.999-1.483-9.053-13.032-20.544-17.739l-16.27-45.463
						c0,0,16.894,0.756,26.116,15.991l4.633,1.674c0,0,27.57-8.165,43.003-5.228L803.022,482.625z"/>
				</defs>
				<use xlink:href="#XMLID_11_"  overflow="visible" fill="#92E3A9"/>
				<clipPath id="XMLID_4_">
					<use xlink:href="#XMLID_11_"  overflow="visible"/>
				</clipPath>
				<path opacity="0.3" clip-path="url(#XMLID_4_)" fill-opacity="0.7" d="M758.154,485.341
					c-0.999-1.483-9.053-13.032-20.544-17.739l-16.27-45.463c0,0,16.894,0.756,26.116,15.991L758.154,485.341z"/>
				<path opacity="0.3" clip-path="url(#XMLID_4_)" fill-opacity="0.7" d="M792.192,482.691c-9.369,0.294-22.313,1.351-28.231,4.794
					l-0.279-0.095l-10.822-45.933c0,0,8.853-1.989,11.579-0.984C764.438,440.473,782.435,453.758,792.192,482.691z"/>
				
					<use xlink:href="#XMLID_11_"  overflow="visible" fill="none" stroke="#263238" stroke-linecap="round" stroke-linejoin="round" stroke-miterlimit="10"/>
			</g>
			
				<line fill="none" stroke="#263238" stroke-linecap="round" stroke-linejoin="round" stroke-miterlimit="10" x1="752.087" y1="439.807" x2="762.713" y2="483.882"/>
			
				<line fill="none" stroke="#263238" stroke-linecap="round" stroke-linejoin="round" stroke-miterlimit="10" x1="758.265" y1="485.506" x2="747.943" y2="441.459"/>
		</g>
		<g>
			<path fill="#FFFFFF" stroke="#263238" stroke-linecap="round" stroke-linejoin="round" stroke-miterlimit="10" d="
				M732.038,466.445c-2.36-0.657-7.108-14.822-4.932-20.917c0,0,2.585-4.487,3.636-4.794c1.648-0.481,8.285-0.341,7.964,0.776
				c-0.742,2.582-5.834,2.539-5.834,2.539l-1.652,3.024l0.071,1.67c0,0,2.396-1.748,3.281-1.7c0.45,0.024,2.803,1.177,4.667,2.164
				c1.596,0.845,2.57,1.301,2.213,2.07c-1.181,2.54-6.217,0.758-6.217,0.758l-1.89,2.85c0,0,1.827,0.316,2.63,0.409
				c0.878,0.101,7.444,4.51,7.243,5.064c-0.784,2.158-7.086-0.176-7.086-0.176l-1.117,0.929c0,0,4.645,1.201,5.117,1.375
				c0.74,0.272,3.567,2.45,3.523,2.698c-0.34,1.908-4.24,0.504-4.24,0.504l-3.411-0.138c0,0-0.688,0.666-1.826,0.942"/>
			<path fill="none" stroke="#263238" stroke-linecap="round" stroke-linejoin="round" stroke-miterlimit="10" d="M731.291,448.742
				c0,0-2.179,1.852-2.773,2.385c-0.594,0.533-0.427,2.24-0.427,2.24"/>
			<path fill="none" stroke="#263238" stroke-linecap="round" stroke-linejoin="round" stroke-miterlimit="10" d="M729.695,457.122
				c-0.014,1.87,1.25,2.998,1.825,3.6c0.575,0.602-0.92,2.241,0.729,3.417"/>
		</g>
		<g>
			<g>
				<defs>
					<path id="XMLID_10_" d="M838.448,516.237c-4.662,1.27-9.728-6.924-15.911-15.867v-0.007
						c-4.082-5.903-8.649-12.137-13.899-16.175c-0.419-0.316-0.844-0.624-1.27-0.918l3.069-15.397
						c6.373,3.341,10.323,8.693,16.938,14.192c10.646,8.862,20.081,14.303,22.695,18.223
						C852.685,504.211,846.436,514.057,838.448,516.237z"/>
				</defs>
				<use xlink:href="#XMLID_10_"  overflow="visible" fill="#FFFFFF"/>
				<clipPath id="XMLID_13_">
					<use xlink:href="#XMLID_10_"  overflow="visible"/>
				</clipPath>
				<path opacity="0.4" clip-path="url(#XMLID_13_)" fill="#92E3A9" d="M822.537,500.364c-4.082-5.903-8.649-12.137-13.899-16.175
					c0.94-0.015,1.659-0.11,2.034-0.308C810.672,483.88,818.969,490.635,822.537,500.364z"/>
				
					<use xlink:href="#XMLID_10_"  overflow="visible" fill="none" stroke="#263238" stroke-linecap="round" stroke-linejoin="round" stroke-miterlimit="10"/>
			</g>
			<g>
				<defs>
					<path id="XMLID_9_" d="M812.163,482.691c-0.257,0.536-0.778,0.918-1.49,1.189c-0.161,0.066-0.33,0.117-0.507,0.169
						c-0.037,0.007-0.088,0.015-0.14,0.029c-4.927,1.285-16.013-1.388-16.013-1.388s-7.261-3.451-7.702-4.266
						c-0.272-0.521-0.602-1.402-0.815-1.982c-0.117-0.345-0.198-0.58-0.198-0.58s-2.614-1.454-2.908-2.614
						c-0.286-1.16-0.874-1.454,0.727-1.674c1.601-0.213,10.308,0,10.308,0l-9.435-3.847c0,0-6.248-3.15-6.828-4.258
						c-0.58-1.116-1.307-1.843,1.887-1.402c3.194,0.433,10.169,2.467,10.169,2.467l5.463,1.16l-5.463-2.327
						c0,0-10.749-1.3-8.715-4.64c0,0,4.068,0,6.101,0s8.539,0.764,10.308,1.307c1.777,0.543,13.524,7.841,13.524,7.841"/>
				</defs>
				<use xlink:href="#XMLID_9_"  overflow="visible" fill="#FFFFFF"/>
				<clipPath id="XMLID_14_">
					<use xlink:href="#XMLID_9_"  overflow="visible"/>
				</clipPath>
				<path opacity="0.4" clip-path="url(#XMLID_14_)" fill="#92E3A9" d="M810.026,484.079c-4.927,1.285-16.013-1.388-16.013-1.388
					s-7.261-3.451-7.702-4.266c-0.272-0.521-0.602-1.402-0.815-1.982l8.913,0.999c0,0-1.072,1.74,0,3.656
					C795.401,482.874,806.693,484.681,810.026,484.079z"/>
				
					<use xlink:href="#XMLID_9_"  overflow="visible" fill="none" stroke="#263238" stroke-linecap="round" stroke-linejoin="round" stroke-miterlimit="10"/>
			</g>
			
				<line fill="none" stroke="#263238" stroke-linecap="round" stroke-linejoin="round" stroke-miterlimit="10" x1="785.296" y1="475.862" x2="796.027" y2="477.439"/>
		</g>
	</g>
	<g>
		<g>
			<defs>
				<path id="XMLID_8_" d="M678.369,508.71l26.884,8.102l49.201-11.226c0,0-30.052-8.553-30.334-8.348
					C723.838,497.444,678.369,508.71,678.369,508.71z"/>
			</defs>
			<use xlink:href="#XMLID_8_"  overflow="visible" fill="#92E3A9"/>
			<clipPath id="XMLID_15_">
				<use xlink:href="#XMLID_8_"  overflow="visible"/>
			</clipPath>
			<path opacity="0.3" clip-path="url(#XMLID_15_)" fill-opacity="0.7" d="M678.369,508.71l26.884,8.102l49.201-11.226
				c0,0-30.052-8.553-30.334-8.348C723.838,497.444,678.369,508.71,678.369,508.71z"/>
			
				<use xlink:href="#XMLID_8_"  overflow="visible" fill="none" stroke="#263238" stroke-linecap="round" stroke-linejoin="round" stroke-miterlimit="10"/>
		</g>
		<g>
			<defs>
				<path id="XMLID_7_" d="M678.756,499.241c-1.884,0.131-2.357,6.934-0.386,9.469l43.43-9.012l3.485-8.241L678.756,499.241z"/>
			</defs>
			<use xlink:href="#XMLID_7_"  overflow="visible" fill="#92E3A9"/>
			<clipPath id="XMLID_16_">
				<use xlink:href="#XMLID_7_"  overflow="visible"/>
			</clipPath>
			<path opacity="0.3" clip-path="url(#XMLID_16_)" fill-opacity="0.7" d="M678.756,499.241c-1.884,0.131-2.357,6.934-0.386,9.469
				l43.43-9.012l3.485-8.241L678.756,499.241z"/>
			
				<use xlink:href="#XMLID_7_"  overflow="visible" fill="none" stroke="#263238" stroke-linecap="round" stroke-linejoin="round" stroke-miterlimit="10"/>
		</g>
		<path fill="#FFFFFF" stroke="#263238" stroke-linecap="round" stroke-linejoin="round" stroke-miterlimit="10" d="M752.34,499.143
			c0,0-0.647,3.58-0.228,5.778l-46.911,10.62l-24.727-7.268c0,0-2.572-4.547-0.331-8.067l45.186-7.669L752.34,499.143z"/>
		<polygon fill="#92E3A9" stroke="#263238" stroke-linecap="round" stroke-linejoin="round" stroke-miterlimit="10" points="
			678.756,499.241 725.284,491.457 754.175,498.777 705.58,508.461 		"/>
		<polyline fill="none" stroke="#263238" stroke-linecap="round" stroke-linejoin="round" stroke-miterlimit="10" points="
			680.406,503.587 705.011,510.911 745.28,502.807 		"/>
		
			<line fill="none" stroke="#263238" stroke-linecap="round" stroke-linejoin="round" stroke-miterlimit="10" x1="751.977" y1="503.555" x2="708.673" y2="512.795"/>
		<path fill="none" stroke="#263238" stroke-linecap="round" stroke-linejoin="round" stroke-miterlimit="10" d="M680.99,506.47
			c0.369,0.037,18.546,5.635,18.546,5.635"/>
		
			<line fill="none" stroke="#263238" stroke-linecap="round" stroke-linejoin="round" stroke-miterlimit="10" x1="748.439" y1="501.86" x2="751.885" y2="501.301"/>
		
			<line fill="none" stroke="#263238" stroke-linecap="round" stroke-linejoin="round" stroke-miterlimit="10" x1="704.207" y1="513.463" x2="702.385" y2="513.053"/>
		<g>
			<defs>
				<path id="XMLID_6_" d="M680.142,500.206c0,0,3.333,3.523,0.331,8.067C680.473,508.273,677.695,504.571,680.142,500.206z"/>
			</defs>
			<use xlink:href="#XMLID_6_"  overflow="visible" fill="#263238"/>
			<clipPath id="XMLID_17_">
				<use xlink:href="#XMLID_6_"  overflow="visible"/>
			</clipPath>
			<path opacity="0.3" clip-path="url(#XMLID_17_)" fill="#FFFFFF" fill-opacity="0.7" d="M680.142,500.206
				c0,0,3.333,3.523,0.331,8.067C680.473,508.273,677.695,504.571,680.142,500.206z"/>
			
				<use xlink:href="#XMLID_6_"  overflow="visible" fill="none" stroke="#263238" stroke-linecap="round" stroke-linejoin="round" stroke-miterlimit="10"/>
		</g>
	</g>
	<g>
		<defs>
			<polygon id="XMLID_5_" points="780.636,510.911 827.59,512.839 823.011,529 765.255,526.797 			"/>
		</defs>
		<use xlink:href="#XMLID_5_"  overflow="visible" fill="#FFFFFF"/>
		<clipPath id="XMLID_18_">
			<use xlink:href="#XMLID_5_"  overflow="visible"/>
		</clipPath>
		<polygon opacity="0.4" clip-path="url(#XMLID_18_)" fill="#92E3A9" points="780.636,510.911 827.59,512.839 823.011,529 
			765.255,526.797 		"/>
		
			<use xlink:href="#XMLID_5_"  overflow="visible" fill="none" stroke="#263238" stroke-linecap="round" stroke-linejoin="round" stroke-miterlimit="10"/>
	</g>
</g>
</svg>
